<?xml version="1.0" encoding="utf-8"?>
<!-- Generator: Adobe Illustrator 22.1.0, SVG Export Plug-In . SVG Version: 6.00 Build 0)  -->
<svg version="1.1" id="Слой_1" xmlns="http://www.w3.org/2000/svg" xmlns:xlink="http://www.w3.org/1999/xlink" x="0px" y="0px"
	 viewBox="0 0 100 100" style="enable-background:new 0 0 100 100;" xml:space="preserve">
<style type="text/css">
	.st0{fill:#385B84;}
	.st1{fill:#FFFFFF;}
</style>
<g>
	<g>
		<path class="st0" d="M69.7,47.4c-1.1,0-2.2-0.1-3.3-0.4c-3.3-0.9-6-3-7.7-5.9c-1.7-2.9-2.1-6.4-1.3-9.6c0.9-3.3,3-6,5.9-7.7
			c6.1-3.5,13.8-1.4,17.3,4.6c1.7,2.9,2.1,6.4,1.3,9.6c-0.9,3.3-3,6-5.9,7.7C74.1,46.9,71.9,47.4,69.7,47.4z M69.7,26
			c-1.5,0-3,0.4-4.3,1.2c-2,1.2-3.5,3-4.1,5.3c-0.6,2.2-0.3,4.6,0.9,6.6c1.2,2,3,3.5,5.3,4.1c2.2,0.6,4.6,0.3,6.6-0.9
			c2-1.2,3.5-3,4.1-5.3c0.6-2.2,0.3-4.6-0.9-6.6C75.6,27.6,72.7,26,69.7,26z"/>
		<path class="st0" d="M47.1,38.9c-7,0-12.7-5.7-12.7-12.7c0-7,5.7-12.7,12.7-12.7s12.7,5.7,12.7,12.7
			C59.8,33.2,54.1,38.9,47.1,38.9z M47.1,17.5c-4.8,0-8.7,3.9-8.7,8.7s3.9,8.7,8.7,8.7s8.7-3.9,8.7-8.7S51.9,17.5,47.1,17.5z"/>
		<path class="st0" d="M28.4,54.2c-2.2,0-4.4-0.6-6.3-1.7c-2.9-1.7-5-4.4-5.9-7.7c-0.9-3.3-0.4-6.7,1.3-9.6
			c3.5-6.1,11.3-8.1,17.3-4.6c6.1,3.5,8.1,11.3,4.6,17.3c-1.7,2.9-4.4,5-7.7,5.9C30.7,54,29.5,54.2,28.4,54.2z M28.5,32.8
			c-3,0-5.9,1.6-7.5,4.3c-1.2,2-1.5,4.4-0.9,6.6s2,4.1,4.1,5.3l0,0c2,1.2,4.4,1.5,6.6,0.9c2.2-0.6,4.1-2,5.3-4.1
			c2.4-4.2,1-9.5-3.2-11.9C31.4,33.1,30,32.8,28.5,32.8z"/>
		<path class="st0" d="M32.4,78c-1.1,0-2.2-0.1-3.3-0.4c-3.3-0.9-6-3-7.7-5.9c-1.7-2.9-2.1-6.4-1.3-9.6c0.9-3.3,3-6,5.9-7.7
			c2.9-1.7,6.4-2.1,9.6-1.3c3.3,0.9,6,3,7.7,5.9c1.7,2.9,2.1,6.4,1.3,9.6c-0.9,3.3-3,6-5.9,7.7l0,0C36.7,77.4,34.6,78,32.4,78z
			 M32.3,56.6c-1.5,0-3,0.4-4.3,1.2c-2,1.2-3.5,3-4.1,5.3c-0.6,2.2-0.3,4.6,0.9,6.6c1.2,2,3,3.5,5.3,4.1c2.2,0.6,4.6,0.3,6.6-0.9
			l0,0c2-1.2,3.5-3,4.1-5.3c0.6-2.2,0.3-4.6-0.9-6.6c-1.2-2-3-3.5-5.3-4.1C33.9,56.7,33.1,56.6,32.3,56.6z"/>
		<path class="st0" d="M54.9,86.5c-7,0-12.7-5.7-12.7-12.7c0-7,5.7-12.7,12.7-12.7s12.7,5.7,12.7,12.7
			C67.6,80.8,61.9,86.5,54.9,86.5z M54.9,65.1c-4.8,0-8.7,3.9-8.7,8.7s3.9,8.7,8.7,8.7s8.7-3.9,8.7-8.7S59.7,65.1,54.9,65.1z"/>
		<path class="st0" d="M73.6,71.2c-2.2,0-4.4-0.6-6.3-1.7c-6.1-3.5-8.1-11.3-4.6-17.3c1.7-2.9,4.4-5,7.7-5.9
			c3.3-0.9,6.7-0.4,9.6,1.3c2.9,1.7,5,4.4,5.9,7.7c0.9,3.3,0.4,6.7-1.3,9.6c-1.7,2.9-4.4,5-7.7,5.9C75.8,71.1,74.7,71.2,73.6,71.2z
			 M73.6,49.8c-0.8,0-1.5,0.1-2.3,0.3c-2.2,0.6-4.1,2-5.3,4.1c-2.4,4.2-1,9.5,3.2,11.9c2,1.2,4.4,1.5,6.6,0.9c2.2-0.6,4.1-2,5.3-4.1
			c1.2-2,1.5-4.4,0.9-6.6c-0.6-2.2-2-4.1-4.1-5.3l0,0C76.6,50.2,75.1,49.8,73.6,49.8z"/>
	</g>
	<circle class="st0" cx="69.5" cy="34.7" r="3.6"/>
	<path class="st0" d="M51,62.7c-4.4,0-8.7-2.3-11-6.3c-3.5-6.1-1.4-13.8,4.6-17.3l0,0c6.1-3.5,13.8-1.4,17.3,4.6
		c3.5,6.1,1.4,13.8-4.6,17.3C55.4,62.1,53.2,62.7,51,62.7z M46.7,42.5c-4.2,2.4-5.6,7.7-3.2,11.9c2.4,4.2,7.7,5.6,11.9,3.2
		c4.2-2.4,5.6-7.7,3.2-11.9C56.2,41.5,50.8,40.1,46.7,42.5L46.7,42.5z"/>
	<path class="st0" d="M49.9,88.7c-6.7,0-13.3-1.8-19.3-5.2l0,0C12.2,72.8,5.9,49.1,16.5,30.7c5.2-8.9,13.5-15.3,23.5-18
		c10-2.7,20.4-1.3,29.3,3.9c18.5,10.7,24.8,34.3,14.2,52.8C78.3,78.3,70,84.7,60,87.3C56.7,88.2,53.3,88.7,49.9,88.7z M32.7,80
		c8,4.6,17.4,5.9,26.3,3.5c8.9-2.4,16.4-8.1,21-16.1c9.6-16.6,3.9-37.8-12.7-47.3c-8-4.6-17.4-5.9-26.3-3.5
		c-8.9,2.4-16.4,8.1-21,16.1C10.4,49.2,16.1,70.5,32.7,80L32.7,80z"/>
	<circle class="st0" cx="73.5" cy="58.4" r="3.6"/>
	<circle class="st0" cx="54.8" cy="73.6" r="3.6"/>
	<circle class="st0" cx="32.3" cy="64.9" r="3.6"/>
	<circle class="st0" cx="51.1" cy="49.8" r="3.6"/>
	<circle class="st0" cx="28.2" cy="41.4" r="3.6"/>
	<circle class="st0" cx="47.1" cy="26" r="3.6"/>
</g>
</svg>
