<?xml version="1.0" encoding="utf-8"?>
<!-- Generator: Adobe Illustrator 22.1.0, SVG Export Plug-In . SVG Version: 6.00 Build 0)  -->
<svg version="1.1" id="Слой_1" xmlns="http://www.w3.org/2000/svg" xmlns:xlink="http://www.w3.org/1999/xlink" x="0px" y="0px"
	 viewBox="0 0 100 100" style="enable-background:new 0 0 100 100;" xml:space="preserve">
<style type="text/css">
	.st0{fill:#385B84;}
	.st1{fill:#FFFFFF;}
</style>
<g>
	<path class="st0" d="M13.4,17c0,3.2,0.1,6.4,0.3,9.5c0.2,2.3-0.1,6.5,1.6,8.4c1.5,1.5,4.8,1.5,6.7,1.8c4.3,0.7,8.8,1.3,13,2.7
		c3.3,1,8.9,3.7,3.6,6.4c-3.8,2-8.3,2.6-12.4,3.7c-4.3,1.1-12.9,3.1-8.4,9.3c2,2.8,6.1,4.6,3.5,8.8c-1.2,1.9-3.8,2.6-5.1,4.4
		c-1.3,1.7-1,3.2-1.2,5.3c-0.3,4.3-1,8.4-0.5,12.7c0.2,1.6,2.7,1.6,2.5,0c-0.4-3.6-0.1-7,0.3-10.6c0.2-1.4,0-3.1,0.4-4.4
		c0.5-1.8,1.6-2.4,3.1-3.6c2.9-2.3,5-4.8,3.5-8.7c-1.3-3.3-8.2-6.9-2.7-9.2c3.8-1.6,8-2.2,11.9-3.2c3.6-1,12.9-3.5,9.5-9
		c-3.5-5.6-15-6-20.7-6.9c-1.2-0.2-3.8-0.2-4.8-0.9c-0.9-0.7-0.9-3.3-1.1-4.8c-0.4-3.8-0.5-7.7-0.5-11.5
		C15.9,15.4,13.4,15.4,13.4,17L13.4,17z"/>
	<path class="st0" d="M22.9,36.8l0.4,14c0,0,18.9-1.2,19.1-7.7C42.6,36.5,22.9,36.8,22.9,36.8z"/>
</g>
<g>
	<path class="st0" d="M41.3,17c0.1,3.4,0.4,6.8,0.8,10.2c0.3,2.2,0.3,5.4,2.5,6.7c4.8,2.8,23-0.2,17.7,11.1
		C59.1,51.9,47,48.5,45,55.2c-0.6,2.1,0.2,4.3,0.7,6.3c0.5,2.2,1.1,4.4,0.5,6.6c-0.4,1.5-1.4,2.7-2,4.1c-2,4.9-1.3,12.9-0.8,18
		c0.2,1.6,2.7,1.6,2.5,0c-0.4-3.9-0.2-7.7,0-11.7c0.2-3.4,1-5.4,2.2-8.5c1-2.5,0.9-4.9,0.4-7.5c-0.5-2.4-2.4-5.9-0.1-7.8
		c2.5-2.1,7.7-2,10.7-3.4c3.4-1.6,6-4.4,6.4-8.3c0.8-7.8-7.9-9.7-13.9-10.5c-1.5-0.2-3.9,0-5.2-0.6c-1.2-0.6-1.2-1.5-1.5-3.1
		c-0.7-3.8-0.9-7.8-1-11.7C43.7,15.4,41.2,15.4,41.3,17L41.3,17z"/>
	<path class="st0" d="M51.2,34.2l0.5,17.2c0,0,12.6,1.9,12.5-8.7C64.1,31.9,51.2,34.2,51.2,34.2z"/>
</g>
<g>
	<path class="st0" d="M70.3,17.8c0.2,4-0.2,11.4,2.9,14.3c2.2,2.1,4.3,2,5.1,5.5c1.1,4.9-0.3,10.4-3.3,14.2c-3.1,4-2.4,9.5-2.6,14.4
		C72.2,74,71.8,82,72.7,89.8c0.2,1.6,2.7,1.6,2.5,0c-0.9-7.6-0.5-15.4-0.3-23c0.1-3.3,0-6.7,0.5-9.9c0.4-2.6,2.2-3.7,3.4-5.9
		c2.8-5,4-14.8-0.9-18.9c-2.2-1.9-3.4-1.8-4-5.1c-0.6-3-0.8-6.2-1-9.2C72.7,16.2,70.2,16.2,70.3,17.8L70.3,17.8z"/>
	<path class="st0" d="M74.1,31.3L74.6,53c0,0,5.4,0.4,5.4-10.3C79.9,32,74.1,31.3,74.1,31.3z"/>
</g>
</svg>
