<?xml version="1.0" encoding="utf-8"?>
<!-- Generator: Adobe Illustrator 22.1.0, SVG Export Plug-In . SVG Version: 6.00 Build 0)  -->
<svg version="1.1" id="Слой_1" xmlns="http://www.w3.org/2000/svg" xmlns:xlink="http://www.w3.org/1999/xlink" x="0px" y="0px"
	 viewBox="0 0 100 100" style="enable-background:new 0 0 100 100;" xml:space="preserve">
<style type="text/css">
	.st0{fill:#385B84;}
	.st1{fill:#FFFFFF;}
</style>
<path class="st0" d="M50.1,67.2h42.1V54.3c0-1.9-1.5-3.4-3.4-3.4h-13l-3.6,8.2h-3.4l-4.9-8.2H50.1V67.2z"/>
<path class="st0" d="M71.2,41.6H41.8c-4.2,0-7.6,3.4-7.6,7.6v18h43.2V47.7C77.3,44.3,74.6,41.6,71.2,41.6z M73.3,55.1H67v-9.5h3.6
	c1.5,0,2.7,1.2,2.7,2.7V55.1z"/>
<path class="st0" d="M16.9,26.3c-5,0-9.1,4.1-9.1,9.1v31.5h59.4V26.3H16.9z M60.1,41.3H52v-8.1h8.1V41.3z"/>
<g>
	<circle class="st0" cx="81.3" cy="68.9" r="7.2"/>
	<path class="st1" d="M72.8,68.9c0-4.7,3.8-8.5,8.5-8.5s8.5,3.8,8.5,8.5c0,4.7-3.8,8.5-8.5,8.5S72.8,73.6,72.8,68.9z M75.4,68.9
		c0,3.3,2.7,5.9,5.9,5.9c3.3,0,5.9-2.7,5.9-5.9c0-3.3-2.7-5.9-5.9-5.9C78.1,63,75.4,65.7,75.4,68.9z"/>
</g>
<g>
	<circle class="st0" cx="42.3" cy="68.9" r="7.2"/>
	<path class="st1" d="M33.8,68.9c0-4.7,3.8-8.5,8.5-8.5s8.5,3.8,8.5,8.5c0,4.7-3.8,8.5-8.5,8.5S33.8,73.6,33.8,68.9z M36.3,68.9
		c0,3.3,2.7,5.9,5.9,5.9c3.3,0,5.9-2.7,5.9-5.9c0-3.3-2.7-5.9-5.9-5.9C39,63,36.3,65.7,36.3,68.9z"/>
</g>
<g>
	<circle class="st0" cx="21.2" cy="68.9" r="7.2"/>
	<path class="st1" d="M12.7,68.9c0-4.7,3.8-8.5,8.5-8.5s8.5,3.8,8.5,8.5c0,4.7-3.8,8.5-8.5,8.5S12.7,73.6,12.7,68.9z M15.2,68.9
		c0,3.3,2.7,5.9,5.9,5.9s5.9-2.7,5.9-5.9c0-3.3-2.7-5.9-5.9-5.9S15.2,65.7,15.2,68.9z"/>
</g>
</svg>
