<?xml version="1.0" encoding="utf-8"?>
<!-- Generator: Adobe Illustrator 22.1.0, SVG Export Plug-In . SVG Version: 6.00 Build 0)  -->
<svg version="1.1" id="Слой_1" xmlns="http://www.w3.org/2000/svg" xmlns:xlink="http://www.w3.org/1999/xlink" x="0px" y="0px"
	 viewBox="0 0 100 100" style="enable-background:new 0 0 100 100;" xml:space="preserve">
<style type="text/css">
	.st0{fill:#385B84;}
	.st1{fill:#FFFFFF;}
</style>
<g>
	<polygon class="st0" points="50,85.1 59.2,85.1 54.6,91.7 50,98.3 45.4,91.7 40.8,85.1 	"/>
	<polygon class="st0" points="50,69.1 59.2,69.1 54.6,75.8 50,82.4 45.4,75.8 40.8,69.1 	"/>
	<polygon class="st0" points="50,53.2 59.2,53.2 54.6,59.8 50,66.4 45.4,59.8 40.8,53.2 	"/>
	<rect x="48.8" y="47.5" class="st0" width="2.3" height="39.7"/>
</g>
<rect x="48.4" y="-1.3" transform="matrix(-1.836970e-16 1 -1 -1.836970e-16 93.5206 -6.4794)" class="st0" width="3.3" height="89.6"/>
<g>
	<path class="st0" d="M68,38.1h17.2v-6.3c0-2.2-1.7-3.9-3.9-3.9h-5.7c-4.2,0-7.6,3.4-7.6,7.6V38.1z"/>
	<path class="st0" d="M74.4,38.1h16.8V33c0-0.8-0.6-1.4-1.4-1.4H74.4V38.1z"/>
	<g>
		<circle class="st0" cx="86" cy="37.6" r="2.7"/>
		<path class="st1" d="M82.8,37.6c0-1.7,1.4-3.1,3.1-3.1s3.1,1.4,3.1,3.1c0,1.7-1.4,3.1-3.1,3.1S82.8,39.3,82.8,37.6z M83.8,37.6
			c0,1.2,1,2.2,2.2,2.2s2.2-1,2.2-2.2s-1-2.2-2.2-2.2S83.8,36.4,83.8,37.6z"/>
	</g>
	<path class="st0" d="M57.5,38h23.7V22.1H62.5c-2.7,0-5,2.2-5,5V38z"/>
	<g>
		<circle class="st0" cx="71.2" cy="37.6" r="2.7"/>
		<path class="st1" d="M68,37.6c0-1.7,1.4-3.1,3.1-3.1c1.7,0,3.1,1.4,3.1,3.1c0,1.7-1.4,3.1-3.1,3.1C69.4,40.7,68,39.3,68,37.6z
			 M69,37.6c0,1.2,1,2.2,2.2,2.2s2.2-1,2.2-2.2s-1-2.2-2.2-2.2S69,36.4,69,37.6z"/>
	</g>
	<g>
		<circle class="st0" cx="63.4" cy="37.6" r="2.7"/>
		<path class="st1" d="M60.2,37.6c0-1.7,1.4-3.1,3.1-3.1c1.7,0,3.1,1.4,3.1,3.1c0,1.7-1.4,3.1-3.1,3.1
			C61.6,40.7,60.2,39.3,60.2,37.6z M61.2,37.6c0,1.2,1,2.2,2.2,2.2s2.2-1,2.2-2.2s-1-2.2-2.2-2.2S61.2,36.4,61.2,37.6z"/>
	</g>
</g>
<polygon class="st0" points="48.4,3.4 48.4,8.7 48.4,39.1 51.3,39.1 51.3,10.3 71.3,27.7 72.7,25.2 "/>
</svg>
