<?xml version="1.0" encoding="utf-8"?>
<!-- Generator: Adobe Illustrator 22.1.0, SVG Export Plug-In . SVG Version: 6.00 Build 0)  -->
<svg version="1.1" id="Layer_1" xmlns="http://www.w3.org/2000/svg" xmlns:xlink="http://www.w3.org/1999/xlink" x="0px" y="0px"
	 viewBox="0 0 371.6 137.7" style="enable-background:new 0 0 371.6 137.7;" xml:space="preserve">
<style type="text/css">
	.st0{fill:#E0E0E0;}
	.st1{fill:#BABABA;}
	.st2{fill:#A3A3A3;}
	.st3{fill:none;stroke:#848484;stroke-width:3;stroke-linecap:round;stroke-linejoin:round;}
	.st4{fill:#233B64;}
	.st5{fill:url(#SVGID_1_);}
	.st6{fill:#FFFFFF;}
</style>
<g>
	<path class="st0" d="M200.7,128.6C200.6,128.6,200.6,128.6,200.7,128.6c-0.8,0-1.4-0.6-1.5-1.4l-8-96.3l-10.5,60.9
		c-0.1,0.7-0.7,1.2-1.4,1.2c-0.7,0.1-1.3-0.4-1.5-1.1l-5.2-17.4H11.7c-0.8,0-1.5-0.7-1.5-1.5s0.7-1.5,1.5-1.5h162
		c0.7,0,1.2,0.4,1.4,1.1l3.7,12.4l11.4-66.2c0.1-0.7,0.8-1.3,1.5-1.2c0.8,0,1.4,0.6,1.4,1.4l8,96.3l10.5-60.5
		c0.1-0.7,0.7-1.2,1.4-1.2c0.7,0,1.3,0.4,1.5,1.1l5.2,16.9h133.9c0.8,0,1.5,0.7,1.5,1.5s-0.7,1.5-1.5,1.5h-135
		c-0.7,0-1.2-0.4-1.4-1.1l-3.7-12l-11.4,65.8C202,128.1,201.4,128.6,200.7,128.6z"/>
	<path class="st1" d="M201.7,126.6C201.6,126.6,201.6,126.6,201.7,126.6c-0.8,0-1.4-0.6-1.5-1.4l-8-96.3l-10.5,60.9
		c-0.1,0.7-0.7,1.2-1.4,1.2c-0.7,0.1-1.3-0.4-1.5-1.1l-5.2-17.4H12.7c-0.8,0-1.5-0.7-1.5-1.5s0.7-1.5,1.5-1.5h162
		c0.7,0,1.2,0.4,1.4,1.1l3.7,12.4l11.4-66.2c0.1-0.7,0.8-1.3,1.5-1.2c0.8,0,1.4,0.6,1.4,1.4l8,96.3l10.5-60.5
		c0.1-0.7,0.7-1.2,1.4-1.2c0.7,0,1.3,0.4,1.5,1.1l5.2,16.9h133.9c0.8,0,1.5,0.7,1.5,1.5s-0.7,1.5-1.5,1.5h-135
		c-0.7,0-1.2-0.4-1.4-1.1l-3.7-12l-11.4,65.8C203,126.1,202.4,126.6,201.7,126.6z"/>
	<path class="st2" d="M202.7,124.6C202.6,124.6,202.6,124.6,202.7,124.6c-0.8,0-1.4-0.6-1.5-1.4l-8-96.3l-10.5,60.9
		c-0.1,0.7-0.7,1.2-1.4,1.2c-0.7,0.1-1.3-0.4-1.5-1.1l-5.2-17.4H13.7c-0.8,0-1.5-0.7-1.5-1.5s0.7-1.5,1.5-1.5h162
		c0.7,0,1.2,0.4,1.4,1.1l3.7,12.4l11.4-66.2c0.1-0.7,0.8-1.3,1.5-1.2c0.8,0,1.4,0.6,1.4,1.4l8,96.3l10.5-60.5
		c0.1-0.7,0.7-1.2,1.4-1.2c0.7,0,1.3,0.4,1.5,1.1l5.2,16.9h133.9c0.8,0,1.5,0.7,1.5,1.5s-0.7,1.5-1.5,1.5h-135
		c-0.7,0-1.2-0.4-1.4-1.1l-3.7-12l-11.4,65.8C204,124.1,203.4,124.6,202.7,124.6z"/>
	<polyline class="st3" points="357.2,67.1 222.2,67.1 216.7,49.1 204.2,121.1 195.2,13.1 182.7,85.6 177.2,67.1 15.2,67.1 	"/>
	<g>
		<path class="st4" d="M29.7,56c0,3.2,0.2,3.4,2.5,3.6v1h-8.7v-1c2.3-0.2,2.5-0.4,2.5-3.6V45.7c0-3.2-0.2-3.5-2.4-3.6v-1h8.1
			c2.5,0,4.2,0.3,5.4,1c1.2,0.8,2,2.2,2,3.9c0,2.6-1.6,4.2-3.9,5.1c0.4,0.8,1.6,2.9,2.4,4.3c1,1.6,1.8,2.8,2.4,3.4
			c0.6,0.7,1,1,1.8,1.2l-0.1,0.9l-1.1-0.1c-3.7-0.2-4.7-1-5.9-2.7c-0.9-1.4-1.8-3.1-2.5-4.7c-0.5-1-0.9-1.2-1.8-1.2h-0.7V56z
			 M29.7,51h0.9c1.2,0,2-0.2,2.8-0.8c1.2-0.9,1.6-2.3,1.6-3.8c0-3-2.1-4-3.8-4c-1.4,0-1.5,0.1-1.5,1.3V51z"/>
		<path class="st4" d="M45.1,45.7c0-3.2-0.2-3.5-2.4-3.6v-1h13.8c0,0.5,0.2,2.7,0.3,4.7l-1.1,0.1c-0.3-1.4-0.6-2.3-1.1-2.7
			c-0.5-0.5-1.5-0.7-3.2-0.7h-1.2c-1.1,0-1.2,0-1.2,1v6.1h2.2c2.6,0,2.7-0.1,3-2.5h1.1v6.6h-1.1c-0.3-2.4-0.4-2.5-3-2.5H49v4.7
			c0,2.2,0.1,2.8,0.8,3.1c0.5,0.2,1.3,0.2,2.6,0.2c1.4,0,2.8-0.2,3.4-0.9c0.5-0.5,1-1.6,1.5-3l1.1,0.2c-0.2,1.2-0.8,4.2-1,5H42.4v-1
			c2.5-0.2,2.7-0.4,2.7-3.6V45.7z"/>
		<path class="st4" d="M60.6,54.9c0.5,1.7,2.2,4.9,5.2,4.9c2,0,3.1-1.5,3.1-3.2c0-2-1.1-3-3.4-4l-0.6-0.3c-2.5-1.1-4.6-2.9-4.6-5.7
			c0-3.2,2.5-5.9,6.7-5.9c0.9,0,1.9,0.1,2.8,0.4c0.5,0.1,0.9,0.3,1.3,0.4c0.1,1.1,0.3,2.4,0.6,4.2l-1.1,0.2C69.9,44.1,69,42,66.5,42
			c-1.8,0-2.9,1.3-2.9,3c0,1.5,1.1,2.6,3.3,3.5l1,0.4c2.4,1,4.6,2.6,4.6,5.9c0,3.5-2.8,6.2-7.1,6.2c-1.1,0-2.2-0.2-3-0.5
			c-0.8-0.3-1.4-0.5-1.8-0.7c-0.2-0.8-0.6-2.8-0.9-4.6L60.6,54.9z"/>
		<path class="st4" d="M76.9,45.7c0-3.2-0.2-3.5-2.4-3.6v-1h13.8c0,0.5,0.2,2.7,0.3,4.7l-1.1,0.1c-0.3-1.4-0.6-2.3-1.1-2.7
			c-0.5-0.5-1.5-0.7-3.2-0.7H82c-1.1,0-1.2,0-1.2,1v6.1h2.2c2.6,0,2.7-0.1,3-2.5H87v6.6h-1.1c-0.3-2.4-0.4-2.5-3-2.5h-2.2v4.7
			c0,2.2,0.1,2.8,0.8,3.1c0.5,0.2,1.3,0.2,2.6,0.2c1.4,0,2.8-0.2,3.4-0.9c0.5-0.5,1-1.6,1.5-3l1.1,0.2c-0.2,1.2-0.8,4.2-1,5H74.2v-1
			c2.5-0.2,2.7-0.4,2.7-3.6V45.7z"/>
		<path class="st4" d="M97.3,56c0,3.2,0.2,3.4,2.5,3.6v1H91v-1c2.3-0.2,2.5-0.4,2.5-3.6V45.7c0-3.2-0.2-3.5-2.4-3.6v-1h8.1
			c2.5,0,4.2,0.3,5.4,1c1.2,0.8,2,2.2,2,3.9c0,2.6-1.6,4.2-3.9,5.1c0.4,0.8,1.6,2.9,2.4,4.3c1,1.6,1.8,2.8,2.4,3.4
			c0.6,0.7,1,1,1.8,1.2l-0.1,0.9l-1.1-0.1c-3.7-0.2-4.7-1-5.9-2.7c-0.9-1.4-1.8-3.1-2.5-4.7c-0.5-1-0.9-1.2-1.8-1.2h-0.7V56z
			 M97.3,51h0.9c1.2,0,2-0.2,2.8-0.8c1.2-0.9,1.6-2.3,1.6-3.8c0-3-2.1-4-3.8-4c-1.4,0-1.5,0.1-1.5,1.3V51z"/>
		<path class="st4" d="M117,60.8c-2.1-5.4-4.9-12.8-6-15.6c-1.1-2.8-1.6-2.9-3.2-3.1v-1h8.6v1l-1,0.1c-1.1,0.1-1.2,0.4-0.8,1.6
			c0.6,1.7,2.9,7.6,4.5,11.7c1-2.6,3.3-9.5,3.8-10.9c0.7-2,0.5-2.4-0.9-2.5l-0.9-0.1v-1h7.1v1c-1.9,0.2-2.2,0.4-3.4,3.3
			c-0.2,0.4-3.9,9.3-6.1,15.5H117z"/>
		<path class="st4" d="M138,40.7c5.4,0,9.6,4.1,9.6,9.9c0,6.3-4.4,10.5-10.3,10.5c-5.9,0-9.8-4.4-9.8-9.9
			C127.4,46.3,130.7,40.7,138,40.7z M137.9,59.7c3.1,0,5.2-2.6,5.2-8.2c0-6-2.1-9.5-5.9-9.5c-3.1,0-5.3,3.1-5.3,8.3
			C131.9,55.5,133.9,59.7,137.9,59.7z"/>
		<path class="st4" d="M156.1,56c0,3.2,0.2,3.4,2.5,3.6v1h-8.8v-1c2.2-0.2,2.5-0.4,2.5-3.6V45.7c0-3.2-0.2-3.5-2.5-3.6v-1h8.8v1
			c-2.2,0.2-2.5,0.4-2.5,3.6V56z"/>
		<path class="st4" d="M166.6,56c0,3.2,0.2,3.4,2.5,3.6v1h-8.7v-1c2.3-0.2,2.5-0.4,2.5-3.6V45.7c0-3.2-0.2-3.5-2.4-3.6v-1h8.1
			c2.5,0,4.2,0.3,5.4,1c1.2,0.8,2,2.2,2,3.9c0,2.6-1.6,4.2-3.9,5.1c0.4,0.8,1.6,2.9,2.4,4.3c1,1.6,1.8,2.8,2.4,3.4
			c0.6,0.7,1,1,1.8,1.2l-0.1,0.9l-1.1-0.1c-3.7-0.2-4.7-1-5.9-2.7c-0.9-1.4-1.8-3.1-2.5-4.7c-0.5-1-0.9-1.2-1.8-1.2h-0.7V56z
			 M166.6,51h0.9c1.2,0,2-0.2,2.8-0.8c1.2-0.9,1.6-2.3,1.6-3.8c0-3-2.1-4-3.8-4c-1.4,0-1.5,0.1-1.5,1.3V51z"/>
	</g>
	<g>
		<g>
			<path class="st4" d="M231.1,91c0,3.2,0.2,3.5,2.5,3.6v1h-8.8v-1c2.2-0.2,2.5-0.4,2.5-3.6V80.7c0-3.2-0.2-3.4-2.5-3.6v-1h8.8v1
				c-2.2,0.2-2.5,0.4-2.5,3.6V91z"/>
			<path class="st4" d="M259.7,76.1v1c-2.3,0.2-2.5,0.3-2.4,3.6l0.3,10.3c0.1,3.3,0.1,3.4,2.5,3.6v1h-8.6v-1
				c2.2-0.2,2.3-0.3,2.3-3.6l-0.1-11.2h-0.1l-6.5,15.5h-1l-6.3-14.7h-0.1l-0.2,7.4c-0.1,2.6,0,4.2,0.1,5.2c0.1,1.1,0.8,1.4,2.7,1.5
				v1h-7.1v-1c1.4-0.1,2-0.4,2.2-1.5c0.1-0.9,0.4-2.7,0.5-5.5l0.4-6.1c0.2-4,0-4.3-2.5-4.5v-1h6l6.1,13.5l5.8-13.5H259.7z"/>
			<path class="st4" d="M272.2,94.7l0.8-0.1c1.1-0.1,1.3-0.5,0.8-1.8c-0.4-1-1-2.5-1.4-3.7h-5.3c-0.4,0.9-0.8,2.2-1.1,3.5
				c-0.5,1.5-0.4,1.8,1,2l0.8,0.1v1h-6.8v-1c1.8-0.2,2.2-0.4,3.2-3.1l6.1-15.4l1.5-0.4l2,5.6c1.3,3.6,2.6,7.1,3.7,10.2
				c1,2.8,1.5,3,3.1,3.2v1h-8.2V94.7z M267.5,87.6h4.4l-2.2-6.2h-0.1L267.5,87.6z"/>
			<path class="st4" d="M297.1,81.5c-0.8-3.8-3.3-4.5-5.6-4.5c-3.8,0-6.6,3.2-6.6,8.5c0,4.7,1.9,9.2,7.1,9.2c1.2,0,2.3-0.2,2.3-1.9
				v-2.7c0-2-0.1-2.2-3.3-2.5v-1.1h8.8v1.1c-1.5,0.3-1.6,0.4-1.6,2.5v2c0,1.1,0,2,0.2,2.7c-1.8,0.5-4.2,1.2-6.5,1.2
				c-6.8,0-11.3-3.9-11.3-10c0-6.9,5.5-10.4,11.5-10.4c2.5,0,4.7,0.5,5.7,0.8c0.1,1,0.2,2.6,0.5,5L297.1,81.5z"/>
			<path class="st4" d="M307.7,91c0,3.2,0.2,3.5,2.5,3.6v1h-8.8v-1c2.2-0.2,2.5-0.4,2.5-3.6V80.7c0-3.2-0.2-3.4-2.5-3.6v-1h8.8v1
				c-2.2,0.2-2.5,0.4-2.5,3.6V91z"/>
			<path class="st4" d="M330,95.8h-1.8l-11.9-14.6h-0.1v6.2c0,3.2,0.2,4.8,0.3,5.7c0.1,1.1,0.9,1.4,2.9,1.5v1H312v-1
				c1.5-0.1,2.2-0.5,2.4-1.5c0.1-0.9,0.3-2.6,0.3-5.7v-5.9c0-1.9,0-2.6-0.5-3.4c-0.6-0.7-1.3-0.9-2.5-1v-1h5.2l11.6,13.5h0.1v-5.3
				c0-3.2-0.2-4.8-0.3-5.7c-0.1-1-0.9-1.4-2.9-1.5v-1h7.4v1c-1.5,0.1-2.2,0.5-2.4,1.5c-0.1,0.9-0.3,2.6-0.3,5.7V95.8z"/>
			<path class="st4" d="M350.9,81.5c-0.8-3.8-3.3-4.5-5.6-4.5c-3.8,0-6.6,3.2-6.6,8.5c0,4.7,1.9,9.2,7.1,9.2c1.2,0,2.3-0.2,2.3-1.9
				v-2.7c0-2-0.1-2.2-3.3-2.5v-1.1h8.8v1.1c-1.5,0.3-1.6,0.4-1.6,2.5v2c0,1.1,0,2,0.2,2.7c-1.8,0.5-4.2,1.2-6.5,1.2
				c-6.8,0-11.3-3.9-11.3-10c0-6.9,5.5-10.4,11.5-10.4c2.5,0,4.7,0.5,5.7,0.8c0.1,1,0.2,2.6,0.5,5L350.9,81.5z"/>
		</g>
	</g>
	<radialGradient id="SVGID_1_" cx="187.6711" cy="64.6105" r="128.1337" gradientUnits="userSpaceOnUse">
		<stop  offset="0" style="stop-color:#000025"/>
		<stop  offset="1" style="stop-color:#B3C5E6"/>
	</radialGradient>
	<path class="st5" d="M358.7,63.1H224.8l-5.2-16.9c-0.2-0.7-0.8-1.1-1.5-1.1c-0.7,0-1.3,0.6-1.4,1.2l-10.5,60.5l-8-96.3
		c-0.1-0.8-0.7-1.3-1.4-1.4c-0.8,0-1.4,0.5-1.5,1.2l-11.4,66.2l-3.7-12.4c-0.2-0.6-0.8-1.1-1.4-1.1h-162c-0.8,0-1.5,0.7-1.5,1.5
		c0,0.8,0.7,1.5,1.5,1.5h160.9l5.2,17.4c0.2,0.7,0.8,1.1,1.5,1.1c0.7,0,1.3-0.6,1.4-1.2l3.1-17.8h11l4.4,53.1
		c0.1,0.8,0.7,1.3,1.4,1.4c0,0,0,0,0.1,0c0.7,0,1.4-0.5,1.5-1.2l9.2-52.9h6.8c0.2,0.1,0.4,0.1,0.6,0.1h135c0.8,0,1.5-0.7,1.5-1.5
		C360.2,63.8,359.5,63.1,358.7,63.1z"/>
	<rect x="354.2" y="60.9" class="st6" width="8.5" height="16.3"/>
	<rect x="8.9" y="59.9" class="st6" width="13.5" height="21"/>
</g>
</svg>
